<?xml version="1.0" encoding="UTF-8" standalone="no"?>
<!-- Created with Inkscape (http://www.inkscape.org/) -->

<svg
   xmlns:dc="http://purl.org/dc/elements/1.1/"
   xmlns:cc="http://creativecommons.org/ns#"
   xmlns:rdf="http://www.w3.org/1999/02/22-rdf-syntax-ns#"
   xmlns:svg="http://www.w3.org/2000/svg"
   xmlns="http://www.w3.org/2000/svg"
   xmlns:sodipodi="http://sodipodi.sourceforge.net/DTD/sodipodi-0.dtd"
   xmlns:inkscape="http://www.inkscape.org/namespaces/inkscape"
   width="64px"
   height="64px"
   id="svg3216"
   version="1.1"
   inkscape:version="0.48.5 r10040"
   sodipodi:docname="amazite.svg"
   inkscape:export-filename="D:\Projects\Amazite\images\amazite.png"
   inkscape:export-xdpi="90"
   inkscape:export-ydpi="90">
  <defs
     id="defs3218" />
  <sodipodi:namedview
     id="base"
     pagecolor="#ffffff"
     bordercolor="#666666"
     borderopacity="1.0"
     inkscape:pageopacity="1"
     inkscape:pageshadow="2"
     inkscape:zoom="7.7781746"
     inkscape:cx="13.771738"
     inkscape:cy="30.066503"
     inkscape:current-layer="layer2"
     showgrid="true"
     inkscape:document-units="px"
     inkscape:grid-bbox="true"
     inkscape:snap-grids="true"
     inkscape:snap-to-guides="true"
     inkscape:snap-page="true"
     inkscape:window-width="1920"
     inkscape:window-height="1018"
     inkscape:window-x="-8"
     inkscape:window-y="-8"
     inkscape:window-maximized="1"
     showborder="false"
     inkscape:showpageshadow="false">
    <inkscape:grid
       type="axonomgrid"
       id="grid3226"
       units="mm"
       empspacing="7"
       visible="true"
       enabled="false"
       snapvisiblegridlinesonly="false" />
  </sodipodi:namedview>
  <metadata
     id="metadata3221">
    <rdf:RDF>
      <cc:Work
         rdf:about="">
        <dc:format>image/svg+xml</dc:format>
        <dc:type
           rdf:resource="http://purl.org/dc/dcmitype/StillImage" />
        <dc:title></dc:title>
      </cc:Work>
    </rdf:RDF>
  </metadata>
  <g
     inkscape:groupmode="layer"
     id="layer2"
     inkscape:label="Layer">
    <rect
       style="fill:#ffffff"
       id="rect2997"
       width="91.538185"
       height="80.738739"
       x="-10.28519"
       y="-7.6106319" />
  </g>
  <g
     id="layer1"
     inkscape:label="Layer 1"
     inkscape:groupmode="layer"
     style="display:inline;opacity:1">
    <path
       style="fill:none;stroke:#000000;stroke-width:1.28157806000000000px;stroke-linecap:butt;stroke-linejoin:miter;stroke-opacity:1"
       d="M 32.211755,0.4256525 4.6832551,16.31924 l 0,31.787172 L 32.211755,64 l 27.5285,-15.893588 0,-31.787172 -27.5285,15.893586 0,31.787174 0,-31.787174 L 4.6832551,16.31924 32.211755,32.212826 59.740255,16.31924 z"
       id="path3250"
       inkscape:connector-curvature="0" />
    <path
       style="fill:#000000;stroke:#000000;stroke-width:1px;stroke-linecap:butt;stroke-linejoin:miter;stroke-opacity:1"
       d="M 68.717923,20.827509 33.362584,0 75.403296,0.77139 z"
       id="path3268-0"
       inkscape:connector-curvature="0" />
    <rect
       style="fill:#000000;fill-opacity:1;stroke:none"
       id="rect3264"
       width="12.342227"
       height="73.924797"
       x="-8.2281513"
       y="-2.4680374" />
    <rect
       style="fill:#000000;fill-opacity:1;stroke:none"
       id="rect3266"
       width="16.327738"
       height="69.682159"
       x="59.654099"
       y="-0.41099954" />
    <path
       style="fill:#000000;stroke:#000000;stroke-width:1px;stroke-linecap:butt;stroke-linejoin:miter;stroke-opacity:1"
       d="M 3.2141217,47.415132 38.569461,68.242641 -3.4712515,67.471251 z"
       id="path3268"
       inkscape:connector-curvature="0" />
    <path
       style="fill:#000000;stroke:#000000;stroke-width:1px;stroke-linecap:butt;stroke-linejoin:miter;stroke-opacity:1"
       d="M 59.757359,48.957911 24.40202,69.78542 66.442732,69.01403 z"
       id="path3268-4"
       inkscape:connector-curvature="0" />
    <path
       style="fill:#000000;stroke:#000000;stroke-width:1px;stroke-linecap:butt;stroke-linejoin:miter;stroke-opacity:1"
       d="M 0,19.13086 35.355339,-1.6966476 -6.685373,-0.92525762 z"
       id="path3268-0-9"
       inkscape:connector-curvature="0" />
    <path
       style="fill:#000000;fill-opacity:1;stroke:none"
       id="path3349"
       d="m 23.592314,52.023134 c -0.03007,-0.0268 -0.0572,-0.06011 -0.08528,-0.09121 -0.04417,-0.04902 -0.08691,-0.100855 -0.129213,-0.153514 -0.05511,-0.07167 -0.111494,-0.140874 -0.168498,-0.208986 -0.06658,-0.07841 -0.134306,-0.154554 -0.201704,-0.231345 -0.07995,-0.09446 -0.166313,-0.175278 -0.251579,-0.25824 -0.0957,-0.09148 -0.193267,-0.178484 -0.29157,-0.263695 -0.112195,-0.09302 -0.226947,-0.179163 -0.341907,-0.264655 -0.127465,-0.09318 -0.256297,-0.182388 -0.384552,-0.273264 -0.13342,-0.09239 -0.266226,-0.186549 -0.39797,-0.283784 -0.146947,-0.109498 -0.292226,-0.223591 -0.438556,-0.334796 -0.186387,-0.150599 -0.375835,-0.292532 -0.56722,-0.429246 -0.247573,-0.17279 -0.5022,-0.323696 -0.753599,-0.484583 -0.266768,-0.167825 -0.530803,-0.344184 -0.79538,-0.518832 -0.266314,-0.176663 -0.531264,-0.357544 -0.79466,-0.54295 -0.258632,-0.181099 -0.515044,-0.36866 -0.770899,-0.557744 -0.253502,-0.188424 -0.505053,-0.382271 -0.75711,-0.574699 -0.248976,-0.190664 -0.497622,-0.382228 -0.745439,-0.57605 -0.249384,-0.193919 -0.49505,-0.397659 -0.739102,-0.60549 -0.244276,-0.208817 -0.482288,-0.432823 -0.718108,-0.661778 -0.230332,-0.225695 -0.454704,-0.464557 -0.676368,-0.708899 -0.21497,-0.237502 -0.421871,-0.491027 -0.626657,-0.748295 -0.198944,-0.24726 -0.390178,-0.508336 -0.576901,-0.777066 -0.177576,-0.256139 -0.342491,-0.532093 -0.502703,-0.814576 -0.150331,-0.264889 -0.285583,-0.549544 -0.411802,-0.844622 -0.115744,-0.270954 -0.210296,-0.563383 -0.295505,-0.863331 -0.07735,-0.279323 -0.142099,-0.56806 -0.199067,-0.861713 -0.05352,-0.275431 -0.08709,-0.561362 -0.114471,-0.849546 -0.0259,-0.275096 -0.03172,-0.55634 -0.02938,-0.838596 0.0028,-0.270267 0.0235,-0.541536 0.0528,-0.812054 0.02944,-0.260046 0.0716,-0.517956 0.119991,-0.773917 0.04865,-0.2542 0.117296,-0.500033 0.192088,-0.741678 0.07609,-0.244185 0.169062,-0.475807 0.268673,-0.70078 0.295083,-0.622663 0.631202,-1.19986 0.969291,-1.768217 0.124823,-0.20776 0.257833,-0.402577 0.395657,-0.588751 0.136226,-0.186899 0.282438,-0.353464 0.42892,-0.518552 0.146471,-0.161349 0.296928,-0.312446 0.450761,-0.453805 0.150108,-0.138818 0.304297,-0.26328 0.460922,-0.379128 0.154886,-0.116229 0.315693,-0.204559 0.476701,-0.28871 0.154849,-0.08161 0.311726,-0.14697 0.469112,-0.206738 0.153587,-0.05479 0.307889,-0.100197 0.46255,-0.132663 0.153533,-0.03032 0.306041,-0.02653 0.457794,-0.01958 0.15262,0.0067 0.302346,0.03816 0.450826,0.07572 0.149678,0.0401 0.294729,0.102612 0.438435,0.169826 0.141247,0.06712 0.278326,0.149329 0.412962,0.238921 0.12886,0.08865 0.250912,0.195699 0.369154,0.311443 0.113671,0.112248 0.219642,0.240313 0.320046,0.378399 0.0966,0.134251 0.182112,0.285729 0.261606,0.444932 0.07634,0.155214 0.140478,0.324421 0.202406,0.495431 0.06127,0.167713 0.114093,0.343043 0.161469,0.522877 0.04634,0.180755 0.08489,0.367083 0.119639,0.5556 0.03477,0.189512 0.06024,0.383929 0.08142,0.580202 0.0205,0.198246 0.03189,0.399766 0.03725,0.602764 0.0052,0.205284 -0.0023,0.412653 -0.01359,0.619896 -0.01105,0.211712 -0.03372,0.423043 -0.06096,0.633674 -0.03001,0.220181 -0.0721,0.437554 -0.11654,0.653831 -0.04702,0.224852 -0.101381,0.446763 -0.158958,0.667079 -0.05922,0.222365 -0.123133,0.442246 -0.188604,0.661158 -0.06616,0.22412 -0.138971,0.444033 -0.214026,0.662335 -0.07709,0.220654 -0.156309,0.439729 -0.235366,0.658912 -0.08066,0.223137 -0.161853,0.445879 -0.243444,0.668307 -0.05722,0.15507 -0.02837,0.07709 -0.08657,0.233963 0,0 -0.714503,1.000764 -0.714503,1.000764 l 0,0 c 0.05821,-0.156004 0.0294,-0.07838 0.08646,-0.232903 0.08197,-0.221746 0.162635,-0.444488 0.243722,-0.666911 0.07891,-0.21891 0.158054,-0.437645 0.236227,-0.657108 0.07604,-0.216037 0.150531,-0.433329 0.217389,-0.655562 0.0659,-0.21752 0.130987,-0.435557 0.191205,-0.656308 0.05955,-0.217178 0.114949,-0.436491 0.163548,-0.658676 0.04634,-0.212242 0.089,-0.426018 0.122687,-0.642127 0.03048,-0.206068 0.05493,-0.413509 0.06804,-0.621318 0.01336,-0.202917 0.02372,-0.406231 0.02102,-0.607716 -0.0026,-0.198905 -0.01122,-0.396297 -0.02955,-0.590726 -0.01909,-0.192708 -0.04162,-0.384026 -0.07471,-0.570041 -0.03253,-0.185297 -0.06917,-0.368244 -0.113222,-0.546052 -0.04475,-0.176329 -0.09469,-0.348425 -0.153981,-0.512322 -0.05934,-0.166683 -0.120561,-0.331987 -0.193776,-0.483683 -0.0755,-0.154414 -0.157353,-0.300731 -0.250043,-0.430344 -0.09716,-0.133767 -0.199764,-0.257725 -0.309988,-0.365997 -0.115012,-0.111686 -0.233611,-0.215272 -0.359182,-0.299759 -0.13219,-0.08688 -0.266779,-0.166419 -0.405531,-0.230725 -0.140766,-0.06433 -0.283035,-0.123347 -0.429864,-0.1593 -0.145611,-0.03429 -0.292396,-0.06202 -0.441926,-0.06541 -0.147899,-0.0042 -0.296632,-0.0027 -0.445961,0.03292 -0.152135,0.03685 -0.304051,0.08182 -0.454914,0.140194 -0.155231,0.06181 -0.309795,0.130243 -0.462412,0.213101 -0.158226,0.08627 -0.315503,0.179342 -0.467169,0.297846 -0.154134,0.118632 -0.305674,0.246574 -0.453593,0.386157 -0.151061,0.144686 -0.299681,0.296481 -0.443357,0.460363 -0.144694,0.166298 -0.287453,0.337367 -0.421253,0.526023 -0.134548,0.189732 -0.264886,0.386824 -0.386879,0.596472 -0.257111,0.442354 -0.04813,0.08425 0.500511,-0.901551 0.01982,-0.0356 -0.04041,0.07018 -0.06024,0.105768 -0.05861,0.105183 -0.113918,0.214251 -0.167379,0.325575 -0.103098,0.218028 -0.198571,0.44404 -0.278364,0.682721 -0.07713,0.235854 -0.149391,0.475222 -0.202244,0.724036 -0.0511,0.251749 -0.0955,0.505654 -0.127592,0.762122 -0.03247,0.265277 -0.05709,0.531485 -0.06273,0.797399 -0.0056,0.276992 -0.0033,0.553264 0.01921,0.823899 0.02484,0.283732 0.0545,0.56597 0.105208,0.837589 0.05386,0.290662 0.116485,0.575801 0.191101,0.852215 0.08165,0.295436 0.172123,0.584005 0.284382,0.850897 0.123193,0.291929 0.255303,0.573614 0.402981,0.835146 0.157907,0.280302 0.320535,0.554087 0.495921,0.807986 0.185251,0.267257 0.374908,0.527048 0.572408,0.772813 0.203358,0.255979 0.40904,0.507808 0.622542,0.744113 0.220362,0.243082 0.443343,0.480878 0.672426,0.705203 0.234584,0.227691 0.471485,0.450161 0.71458,0.657555 0.243333,0.20702 0.488474,0.409435 0.737133,0.602538 0.247644,0.193516 0.495984,0.385129 0.744724,0.575655 0.251636,0.192456 0.502976,0.385761 0.756156,0.573938 0.255481,0.188542 0.511471,0.375687 0.769568,0.556702 0.262886,0.184853 0.527166,0.365644 0.793069,0.541438 0.264345,0.174448 0.528377,0.349894 0.795091,0.516956 0.252881,0.16036 0.508223,0.313075 0.757651,0.484254 0.19311,0.135129 0.384312,0.275437 0.5726,0.424179 0.146441,0.110239 0.291652,0.223885 0.438892,0.331879 0.13179,0.0961 0.264621,0.189166 0.397574,0.281891 0.128768,0.09104 0.25804,0.180629 0.386033,0.273917 0.116643,0.08622 0.233011,0.173336 0.346564,0.26796 0.09962,0.08586 0.198334,0.17396 0.29518,0.266544 0.08712,0.08411 0.174888,0.166931 0.256864,0.262227 0.06818,0.07685 0.136659,0.153099 0.203791,0.232057 0.05747,0.06831 0.114421,0.137548 0.170354,0.208785 0.04143,0.05064 0.08336,0.100389 0.126786,0.147061 0.02549,0.02751 0.0505,0.05631 0.07763,0.0802 0,0 -0.624121,1.158163 -0.624121,1.158163 z"
       inkscape:connector-curvature="0" />
    <path
       style="fill:#000000;fill-opacity:1;stroke:none"
       id="path3369"
       d="m 30.458499,8.2017165 c -0.02771,0.032953 -0.05082,0.069035 -0.07273,0.1059976 -0.03231,0.048789 -0.06057,0.1000342 -0.09271,0.1489238 -0.03911,0.061364 -0.07811,0.1228418 -0.116405,0.1847354 -0.04944,0.076863 -0.09927,0.1534866 -0.14888,0.2302471 -0.05756,0.090896 -0.114256,0.1823435 -0.171892,0.2731943 -0.06764,0.1046096 -0.133963,0.210051 -0.200721,0.3152247 -0.07135,0.1120131 -0.142659,0.2240551 -0.213874,0.3361576 -0.07584,0.1163093 -0.149156,0.234229 -0.222794,0.351936 -0.08243,0.131044 -0.164037,0.262611 -0.244243,0.39503 -0.0909,0.148017 -0.178944,0.297753 -0.266089,0.448006 -0.09072,0.160813 -0.179795,0.322564 -0.268119,0.484706 -0.09287,0.171433 -0.186146,0.342643 -0.27937,0.513883 -0.09788,0.177461 -0.193167,0.356334 -0.287427,0.535737 -0.09774,0.186449 -0.193867,0.373724 -0.2885,0.561769 -0.09877,0.195752 -0.196666,0.391941 -0.294674,0.588075 -0.102887,0.205732 -0.208071,0.410301 -0.311512,0.615753 -0.105184,0.210069 -0.212056,0.41928 -0.318564,0.628678 -0.108757,0.210788 -0.218745,0.420941 -0.328331,0.6313 -0.114137,0.215321 -0.228493,0.430525 -0.341335,0.646528 -0.112937,0.216364 -0.226566,0.432365 -0.339883,0.64853 -0.113898,0.218416 -0.225892,0.437797 -0.331602,0.6603 -0.100382,0.211699 -0.187774,0.429106 -0.269873,0.64843 -0.07244,0.196654 -0.132082,0.397645 -0.181646,0.601184 -0.04252,0.182842 -0.07101,0.368474 -0.09183,0.554914 -0.01827,0.169613 -0.02092,0.339999 -0.01268,0.510221 0.0074,0.157145 0.03346,0.312177 0.06575,0.465852 0.03147,0.143186 0.07955,0.281793 0.132157,0.418368 0.04857,0.128345 0.113675,0.248228 0.195528,0.358104 0.08519,0.105977 0.191299,0.190277 0.299471,0.271215 0.111074,0.08224 0.235058,0.144106 0.361541,0.19861 0.133112,0.05796 0.27349,0.09296 0.416067,0.117559 0.16473,0.02955 0.332496,0.0162 0.498125,0.003 0.19124,-0.01316 0.37989,-0.04696 0.56856,-0.07927 0.202673,-0.03548 0.40355,-0.0805 0.604019,-0.126638 0.212061,-0.04986 0.421108,-0.11157 0.629355,-0.175265 0.228039,-0.07089 0.451291,-0.155594 0.673798,-0.241965 0.234226,-0.09416 0.465146,-0.196209 0.696075,-0.298099 0.237813,-0.104522 0.471877,-0.21727 0.705007,-0.331774 0.239679,-0.11704 0.473896,-0.244598 0.708336,-0.371667 0.03929,-0.02175 0.0787,-0.0433 0.117886,-0.06524 0.0779,-0.04362 0.15551,-0.08776 0.233218,-0.131725 0.0388,-0.02195 0.154855,-0.08837 0.116259,-0.06607 -1.478886,0.854339 -1.395686,0.806178 -0.959487,0.552832 0.235287,-0.137641 0.468544,-0.278704 0.70263,-0.418368 0.633484,-0.375317 1.270502,-0.744719 1.911078,-1.107801 0.249099,-0.141218 0.500261,-0.278694 0.752114,-0.414922 0.258742,-0.139668 0.520206,-0.274116 0.781486,-0.40894 0.267972,-0.135693 0.536857,-0.269524 0.807939,-0.398897 0.275538,-0.130608 0.553144,-0.256766 0.830776,-0.382835 0.289538,-0.132243 0.58218,-0.257475 0.875364,-0.381365 0.296387,-0.125682 0.595353,-0.245074 0.89514,-0.362364 0.300682,-0.121127 0.602543,-0.239255 0.906325,-0.352387 0.313185,-0.115263 0.629372,-0.222029 0.945989,-0.327399 0.316657,-0.10541 0.635006,-0.20562 0.954119,-0.303308 0.317118,-0.09665 0.635292,-0.189783 0.954199,-0.280341 0.315543,-0.09028 0.633346,-0.172316 0.951306,-0.253571 0.309102,-0.07988 0.620445,-0.149608 0.933385,-0.21252 0.206426,-0.04058 0.103186,-0.02084 0.309721,-0.05921 0,0 -1.110175,0.83878 -1.110175,0.83878 l 0,0 c -0.205506,0.03966 -0.102718,0.01941 -0.308364,0.06076 -0.311343,0.06489 -0.620789,0.138094 -0.928731,0.217616 -0.317194,0.08184 -0.634018,0.165208 -0.948704,0.256314 -0.31819,0.09154 -0.63587,0.184874 -0.952265,0.282459 -0.318344,0.09877 -0.636036,0.19966 -0.951993,0.305855 -0.315959,0.106231 -0.631342,0.214325 -0.943323,0.331831 -0.302959,0.115073 -0.604317,0.234219 -0.90534,0.354258 -0.299054,0.118225 -0.597093,0.239006 -0.892844,0.365303 -0.292646,0.124841 -0.584458,0.251644 -0.873582,0.384481 -0.277496,0.126528 -0.554747,0.253649 -0.829643,0.385758 -0.270074,0.131054 -0.53877,0.26493 -0.805772,0.402143 -0.261266,0.134867 -0.521753,0.271225 -0.780116,0.411594 -0.251376,0.13703 -0.502049,0.275341 -0.750601,0.417446 -0.476321,0.273414 -0.198988,0.114366 0.949482,-0.548821 0.03986,-0.02302 -0.07974,0.04598 -0.119513,0.06913 -0.119094,0.06931 -0.237364,0.140009 -0.356275,0.209629 -0.234665,0.138758 -0.467652,0.280319 -0.702156,0.41935 -0.628157,0.368199 -1.256911,0.735824 -1.895799,1.085171 -0.23525,0.126858 -0.471773,0.251388 -0.71259,0.367435 -0.23446,0.113027 -0.469734,0.224402 -0.708638,0.327806 -0.231876,0.101702 -0.464312,0.202418 -0.700734,0.29319 -0.224723,0.08511 -0.450925,0.166622 -0.681481,0.234729 -0.210429,0.06192 -0.421697,0.121463 -0.636123,0.168148 -0.202234,0.04462 -0.404777,0.08821 -0.609364,0.120843 -0.191701,0.03125 -0.3841,0.05871 -0.578304,0.06847 -0.174472,0.0079 -0.349655,0.0084 -0.520898,-0.03157 -0.149296,-0.03397 -0.296057,-0.07779 -0.434817,-0.143584 -0.132842,-0.06336 -0.262416,-0.134119 -0.378729,-0.225094 -0.116947,-0.09079 -0.229655,-0.187529 -0.320523,-0.305418 -0.08754,-0.120805 -0.160091,-0.250698 -0.213545,-0.390339 -0.05594,-0.143109 -0.107029,-0.288324 -0.142254,-0.43811 -0.03532,-0.160092 -0.06494,-0.32159 -0.07507,-0.485519 -0.01162,-0.176794 -0.01329,-0.353802 0.0036,-0.530438 0.01746,-0.191952 0.0453,-0.382849 0.08528,-0.571472 0.04605,-0.209329 0.104926,-0.415454 0.175763,-0.617806 0.08083,-0.223009 0.166976,-0.444187 0.266159,-0.659772 0.103716,-0.224912 0.215166,-0.445943 0.329027,-0.665881 0.112829,-0.216338 0.226594,-0.432187 0.340005,-0.64822 0.111982,-0.216467 0.225919,-0.431922 0.340864,-0.646829 0.110406,-0.209379 0.217511,-0.420492 0.328811,-0.629409 0.105787,-0.209568 0.213424,-0.418192 0.318718,-0.62801 0.102398,-0.205658 0.207355,-0.41002 0.310837,-0.615133 0.09749,-0.196341 0.195788,-0.392281 0.293855,-0.588334 0.09475,-0.188275 0.189101,-0.376739 0.287113,-0.563351 0.09337,-0.180456 0.188588,-0.359976 0.285988,-0.538292 0.09403,-0.170298 0.185412,-0.34204 0.278846,-0.51266 0.08736,-0.163258 0.177731,-0.32486 0.2662,-0.487515 0.08541,-0.151841 0.173982,-0.301858 0.263468,-0.451325 0.08112,-0.131782 0.159683,-0.26514 0.242104,-0.396141 0.0743,-0.117434 0.146474,-0.236199 0.22149,-0.353183 0.0727,-0.110709 0.141599,-0.223816 0.214198,-0.334586 0.06593,-0.1054025 0.131321,-0.2111955 0.199802,-0.3149678 0.05699,-0.090678 0.113678,-0.1815488 0.170988,-0.2720172 0.04729,-0.078384 0.0987,-0.1540787 0.146608,-0.232044 0.04076,-0.059657 0.07813,-0.1216874 0.115819,-0.1832742 0.03058,-0.049244 0.06473,-0.096151 0.09212,-0.147378 0.02487,-0.03742 0.04504,-0.077405 0.06906,-0.1153075 0,0 1.29449,-0.5597518 1.29449,-0.5597518 z"
       inkscape:connector-curvature="0" />
    <path
       style="fill:#000000;fill-opacity:1;stroke:none"
       id="path3371"
       d="m 20.451356,13.461618 c 0.03621,-0.03277 0.0772,-0.05971 0.117547,-0.08706 0.472043,-0.277343 0.919636,-0.607699 1.436903,-0.789428 0.08568,-0.03107 0.173777,-0.05422 0.261826,-0.07737 0.106784,-0.02649 0.21382,-0.052 0.322182,-0.07116 0.123638,-0.02199 0.248342,-0.03723 0.373589,-0.04595 0.154005,-0.01257 0.30888,-0.0076 0.462944,0.0011 0.187371,0.0097 0.373432,0.03765 0.558253,0.06898 0.209563,0.03232 0.416353,0.07883 0.622254,0.128917 0.223626,0.05277 0.445614,0.111801 0.666271,0.175769 0.238491,0.06931 0.475253,0.144307 0.713037,0.215949 0.255288,0.0795 0.509558,0.162216 0.764079,0.244125 0.269221,0.08781 0.536944,0.179983 0.804099,0.273864 0.281799,0.100403 0.561491,0.206509 0.838342,0.319832 0.318903,0.133637 0.632624,0.279127 0.946596,0.423835 0.352557,0.161523 0.704468,0.324479 1.054905,0.490554 0.373893,0.174306 0.741539,0.361445 1.111942,0.542938 0.400054,0.19628 0.80264,0.387332 1.206867,0.574852 0.440765,0.206404 0.886182,0.402474 1.334989,0.590678 0.48325,0.202611 0.972371,0.390739 1.461878,0.577573 0.511942,0.197826 1.027857,0.384946 1.547479,0.561542 0.578589,0.195746 1.166484,0.361939 1.757661,0.514805 0.623131,0.161332 1.254188,0.287808 1.88679,0.405237 0.631027,0.118609 1.264763,0.22129 1.900383,0.31179 0.320295,0.04506 0.641687,0.08097 0.963237,0.115558 0,0 -1.114688,0.791429 -1.114688,0.791429 l 0,0 c -0.322514,-0.03595 -0.644935,-0.07281 -0.966179,-0.11908 -0.636623,-0.09233 -1.271337,-0.196785 -1.903391,-0.316701 C 38.946289,19.164723 38.313206,19.035128 37.68794,18.871774 37.093856,18.71605 36.502682,18.548541 35.920889,18.351218 35.39961,18.173612 34.882021,17.985601 34.368343,17.78701 33.87737,17.599519 33.38702,17.410151 32.902374,17.206727 32.451885,17.017253 32.004547,16.820495 31.561707,16.613706 31.156419,16.425502 30.752455,16.234454 30.351169,16.03784 29.980841,15.856654 29.612554,15.671243 29.238528,15.49771 28.887711,15.332653 28.535708,15.170128 28.18284,15.009503 27.869309,14.866296 27.555506,14.723362 27.236167,14.593445 26.95969,14.483267 26.681128,14.378401 26.400245,14.279951 c -0.266766,-0.09284 -0.534159,-0.183824 -0.803058,-0.270329 -0.254192,-0.08175 -0.508331,-0.163734 -0.763833,-0.241319 -0.237292,-0.07201 -0.474087,-0.145703 -0.712648,-0.213457 -0.220082,-0.06149 -0.441551,-0.117695 -0.664069,-0.169707 -0.204252,-0.0471 -0.409633,-0.08901 -0.617102,-0.119507 -0.182588,-0.02662 -0.365936,-0.0504 -0.550682,-0.05416 -0.151548,-0.0031 -0.303236,-0.0028 -0.45401,0.0153 -0.122619,0.01447 -0.244918,0.03238 -0.365632,0.05863 -0.106218,0.02424 -0.212278,0.0495 -0.316833,0.08024 -0.08616,0.02577 -0.171485,0.05429 -0.254633,0.0887 -0.464045,0.196228 -1.045261,0.675025 0.987396,-0.586077 -0.04268,0.02132 -0.08295,0.04638 -0.123988,0.07061 0,0 -1.309797,0.522738 -1.309797,0.522738 z"
       inkscape:connector-curvature="0" />
    <path
       style="fill:#000000;fill-opacity:1;stroke:none"
       id="path3423"
       d="m 46.761012,30.332431 c 0.05189,0.04206 0.09845,0.09435 0.145297,0.144822 0.07317,0.08161 0.145385,0.164511 0.217381,0.247702 0.09653,0.109357 0.190241,0.222384 0.284657,0.334479 0.112767,0.131924 0.222987,0.266986 0.332075,0.403462 0.125455,0.158729 0.252099,0.316042 0.377705,0.474596 0.140562,0.177382 0.277605,0.358721 0.412827,0.542098 0.147183,0.19877 0.291966,0.400092 0.434826,0.603389 0.150846,0.217992 0.30199,0.435689 0.453103,0.653415 0.159169,0.22655 0.315187,0.456228 0.470205,0.686861 0.165123,0.247428 0.329349,0.495688 0.492563,0.74491 0.175397,0.269711 0.347837,0.542114 0.520658,0.814157 0.182538,0.284891 0.359939,0.574261 0.535099,0.865529 0.177952,0.295552 0.35033,0.595622 0.520816,0.897137 0.170933,0.303032 0.33677,0.609897 0.506833,0.913585 0.16905,0.295647 0.339229,0.590398 0.506761,0.887228 0.169023,0.298979 0.331909,0.602556 0.495488,0.905577 0.152508,0.274811 0.300488,0.552682 0.437904,0.837909 0.105143,0.227316 0.202555,0.459119 0.286282,0.697172 0.06339,0.181981 0.109965,0.369084 0.145486,0.558349 0.02469,0.138918 0.03936,0.278305 0.03897,0.417067 -0.05392,0.598446 -0.508004,1.063974 -0.956819,1.243721 -0.08402,0.0175 -0.171809,0.01609 -0.258863,0.0074 -0.105005,-0.01456 -0.209548,-0.04471 -0.313314,-0.07715 -0.133115,-0.04318 -0.263711,-0.100804 -0.393995,-0.159432 -0.154065,-0.06576 -0.303035,-0.151746 -0.452954,-0.233508 -0.170774,-0.09685 -0.340224,-0.198084 -0.506435,-0.308495 C 51.307911,43.308423 51.125389,43.174676 50.942024,43.043043 50.746379,42.905085 50.554073,42.759315 50.36315,42.610604 50.16095,42.446752 49.956434,42.287802 49.753419,42.125649 49.544226,41.958193 49.339044,41.782717 49.132853,41.609253 48.920397,41.428688 48.709241,41.245632 48.499467,41.06 48.280493,40.866251 48.061983,40.671643 47.842925,40.478051 47.614777,40.273384 47.383818,40.073944 47.151689,39.876777 46.909997,39.671125 46.668534,39.465022 46.42775,39.257618 c -0.238623,-0.209221 -0.48209,-0.408399 -0.733244,-0.591334 -0.228789,-0.166398 -0.465607,-0.31116 -0.704811,-0.44811 -0.211157,-0.119644 -0.425927,-0.226136 -0.64296,-0.322638 -0.183992,-0.07955 -0.370177,-0.146769 -0.557761,-0.203201 -0.14607,-0.04389 -0.293201,-0.069 -0.440036,-0.07587 -0.109916,-0.005 -0.21758,0.007 -0.320877,0.0393 -0.05541,0.01981 -0.107938,0.04791 -0.143012,0.103768 -0.008,0.01276 -0.03101,0.0518 -0.02161,0.04057 0.269642,-0.322039 0.535249,-0.649093 0.802873,-0.973639 -0.06528,0.08696 -0.05926,0.215769 -0.05144,0.333878 0.0154,0.160635 0.04838,0.320145 0.08325,0.478473 0.03802,0.174165 0.08622,0.345779 0.141445,0.514986 0.05933,0.179493 0.134812,0.351387 0.217374,0.518764 0.09861,0.192441 0.213138,0.372759 0.328298,0.551746 0.1364,0.210873 0.270352,0.42395 0.405724,0.635753 0.148856,0.231795 0.297679,0.463597 0.444868,0.696891 0.16189,0.254215 0.318102,0.513304 0.473747,0.772864 0.161651,0.270925 0.320596,0.544069 0.479037,0.817589 0.163653,0.286583 0.327665,0.572895 0.489915,0.86057 0.166906,0.296144 0.328591,0.596222 0.489434,0.89685 0.160369,0.299404 0.316672,0.601672 0.471912,0.90465 0.153329,0.299638 0.304674,0.600612 0.450864,0.904912 0.125042,0.255085 0.225997,0.522672 0.297778,0.800907 0.04704,0.192563 0.06185,0.384322 0.03595,0.572524 -0.165199,0.583814 -0.588979,1.026775 -1.012591,1.320729 -0.108261,0.05908 -0.232782,0.06339 -0.354837,0.05786 -0.152219,-0.01318 -0.304315,-0.05088 -0.455291,-0.09352 -0.171267,-0.04685 -0.337094,-0.126593 -0.500143,-0.214721 -0.180194,-0.101858 -0.35183,-0.22775 -0.524493,-0.350006 -0.18607,-0.133595 -0.368294,-0.276069 -0.550251,-0.418908 -0.19396,-0.148604 -0.380338,-0.312634 -0.565686,-0.478177 -0.193215,-0.171515 -0.380478,-0.352773 -0.564558,-0.53954 C 43.704834,46.176931 43.523037,45.967926 43.341821,45.758491 43.158224,45.54406 42.974903,45.329277 42.7941,45.111277 42.609907,44.886008 42.428611,44.657219 42.247736,44.427979 42.062863,44.194853 41.881598,43.957597 41.700773,43.71984 41.518449,43.477155 41.337242,43.233235 41.155685,42.989708 40.972647,42.74159 40.780613,42.503641 40.580333,42.276427 40.369522,42.040774 40.147304,41.82238 39.918533,41.6152 c -0.229074,-0.210321 -0.475369,-0.383094 -0.729766,-0.533553 -0.250773,-0.14422 -0.511209,-0.249791 -0.772521,-0.345981 -0.24732,-0.09317 -0.497829,-0.147277 -0.748844,-0.157966 -0.200955,-0.0057 -0.39862,0.01852 -0.595649,0.04252 0,0 0.744009,-1.109806 0.744009,-1.109806 l 0,0 c 0.201744,-0.02152 0.404364,-0.04162 0.610292,-0.02685 0.259388,0.02495 0.517592,0.08669 0.772052,0.185724 0.267043,0.101629 0.532965,0.213768 0.788587,0.365026 0.260633,0.158603 0.512933,0.339515 0.748464,0.556227 0.232533,0.211818 0.458983,0.434096 0.673566,0.674272 0.203429,0.230415 0.398629,0.471647 0.584438,0.723456 0.181246,0.243062 0.362387,0.486247 0.54433,0.728541 0.18023,0.236906 0.360836,0.473379 0.545189,0.705565 0.180205,0.227977 0.360582,0.455799 0.544181,0.679709 0.180139,0.21701 0.362788,0.430823 0.545637,0.644368 0.179032,0.206651 0.358956,0.412443 0.548564,0.604205 0.181995,0.184139 0.367612,0.362041 0.558498,0.531266 0.183324,0.163101 0.368081,0.323808 0.559914,0.470051 0.180428,0.140989 0.361199,0.281474 0.546031,0.41246 0.168483,0.118516 0.336463,0.239913 0.51348,0.334511 0.157138,0.08063 0.316733,0.15171 0.48115,0.191576 0.143944,0.03623 0.289493,0.07025 0.433533,0.0666 0.110254,-0.01002 0.216359,-0.02907 0.29927,-0.116176 0.359024,-0.374492 -1.177162,1.554374 -0.625806,0.728305 0.05662,-0.157685 0.05112,-0.330315 0.0156,-0.507744 -0.05713,-0.269631 -0.153186,-0.527274 -0.270107,-0.773458 -0.14422,-0.303658 -0.295147,-0.603003 -0.447432,-0.90143 -0.154544,-0.302175 -0.310228,-0.603588 -0.469871,-0.902219 -0.159984,-0.299553 -0.320841,-0.598529 -0.487117,-0.893436 -0.161936,-0.286971 -0.325892,-0.572384 -0.489115,-0.858357 -0.158153,-0.272543 -0.316923,-0.544624 -0.47795,-0.814839 -0.155037,-0.258178 -0.310309,-0.516188 -0.472031,-0.768622 -0.147451,-0.23252 -0.296146,-0.463891 -0.445148,-0.695004 -0.135629,-0.211132 -0.269789,-0.423602 -0.406724,-0.633539 -0.119333,-0.183814 -0.2378,-0.368978 -0.341616,-0.565683 -0.08824,-0.173628 -0.169532,-0.351802 -0.233752,-0.538554 -0.0599,-0.173519 -0.11219,-0.350048 -0.153104,-0.529463 -0.03875,-0.164499 -0.07384,-0.330023 -0.09821,-0.496848 -0.01756,-0.140492 -0.0305,-0.282112 -0.0075,-0.417608 0.330811,-0.411337 0.567227,-1.036019 1.066067,-1.145407 0.112949,-0.01821 0.22814,-0.02291 0.344524,-0.01108 0.152827,0.01754 0.305497,0.04984 0.456666,0.09904 0.190533,0.06221 0.379857,0.133272 0.566638,0.217531 0.219488,0.101276 0.43694,0.2113 0.650594,0.334715 0.242252,0.141526 0.481795,0.291638 0.713595,0.462028 0.252991,0.187314 0.49877,0.389749 0.740335,0.600824 0.240665,0.207027 0.481971,0.412837 0.72366,0.617892 0.232922,0.197785 0.464647,0.397873 0.693716,0.602929 0.219109,0.193607 0.438187,0.387277 0.65718,0.581097 0.209168,0.184431 0.419618,0.366461 0.6314,0.545928 0.205233,0.172776 0.410005,0.346488 0.618454,0.512803 0.202611,0.161579 0.406383,0.320669 0.608761,0.482743 0.190207,0.146599 0.381607,0.29055 0.57605,0.427345 0.181875,0.130642 0.3633,0.262543 0.54819,0.385663 0.164429,0.106184 0.331533,0.204748 0.50014,0.298109 0.147378,0.08027 0.294911,0.160419 0.446567,0.223665 0.126616,0.05523 0.254002,0.107864 0.383621,0.144691 0.09762,0.02646 0.196232,0.05237 0.294363,0.05296 0.07453,-0.0021 0.150841,-0.0052 0.211525,-0.0557 0.376381,-0.332862 -1.087136,1.455609 -0.68344,0.816559 0.02148,-0.123757 0.0071,-0.25345 -0.01051,-0.382267 -0.0273,-0.181675 -0.06805,-0.361297 -0.125187,-0.536498 -0.07738,-0.233741 -0.170974,-0.460045 -0.270758,-0.683179 -0.133884,-0.284252 -0.278574,-0.56116 -0.429826,-0.83361 -0.162982,-0.302042 -0.325483,-0.604481 -0.493682,-0.902651 -0.167528,-0.29708 -0.337478,-0.592256 -0.506782,-0.887951 -0.17016,-0.303358 -0.335732,-0.610169 -0.506391,-0.913154 -0.169553,-0.300207 -0.341113,-0.59888 -0.518048,-0.893199 -0.174252,-0.290027 -0.350874,-0.578063 -0.532664,-0.86158 -0.172803,-0.270932 -0.34492,-0.5425 -0.520383,-0.811016 -0.16286,-0.248508 -0.327052,-0.49575 -0.491883,-0.742401 -0.154826,-0.229631 -0.310607,-0.458332 -0.469487,-0.683967 -0.150878,-0.217388 -0.30173,-0.434802 -0.452827,-0.65197 -0.142414,-0.201884 -0.286364,-0.402189 -0.433063,-0.59957 -0.134235,-0.181547 -0.27067,-0.36061 -0.410141,-0.536248 -0.125647,-0.15803 -0.252496,-0.314613 -0.378101,-0.472696 -0.108676,-0.134821 -0.218477,-0.268228 -0.33064,-0.398686 -0.09414,-0.111087 -0.187713,-0.222955 -0.284177,-0.331002 -0.07114,-0.08091 -0.142511,-0.161551 -0.215145,-0.24041 -0.04179,-0.04351 -0.0832,-0.08855 -0.1297,-0.123902 0,0 0.818748,-1.048399 0.818748,-1.048399 z"
       inkscape:connector-curvature="0" />
  </g>
</svg>
